<svg xmlns="http://www.w3.org/2000/svg" width="24" height="24" viewBox="0 0 24 24" >
  <path d="M0 12.53c.034-.137.069-.273.101-.41C.43 10.738 1.62 9.718 3.04 9.704c2.739-.028 5.478-.032 8.217 0 1.675.02 3.019 1.383 3.035 3.061.027 2.714.024 5.428.001 8.142-.012 1.552-1.155 2.812-2.68 3.043-.05.008-.098.033-.147.05H2.893c-.05-.016-.1-.038-.152-.046-1.36-.208-2.357-1.131-2.66-2.465-.025-.11-.054-.22-.081-.33v-8.63zm12.586 4.328c0-1.304.002-2.608 0-3.912-.002-.94-.601-1.538-1.543-1.54-2.598-.002-5.196-.002-7.794 0-.923.002-1.525.607-1.526 1.531-.002 2.6-.002 5.199 0 7.798.001.94.604 1.539 1.545 1.54h7.767c.956 0 1.55-.598 1.551-1.558.002-1.287 0-2.573 0-3.859z" fill="#fff"/>
  <path d="M0 12.53c.034-.137.069-.273.101-.41C.43 10.738 1.62 9.718 3.04 9.704c2.739-.028 5.478-.032 8.217 0 1.675.02 3.019 1.383 3.035 3.061.027 2.714.024 5.428.001 8.142-.012 1.552-1.155 2.812-2.68 3.043-.05.008-.098.033-.147.05H2.893c-.05-.016-.1-.038-.152-.046-1.36-.208-2.357-1.131-2.66-2.465-.025-.11-.054-.22-.081-.33v-8.63zm12.586 4.328c0-1.304.002-2.608 0-3.912-.002-.94-.601-1.538-1.543-1.54-2.598-.002-5.196-.002-7.794 0-.923.002-1.525.607-1.526 1.531-.002 2.6-.002 5.199 0 7.798.001.94.604 1.539 1.545 1.54h7.767c.956 0 1.55-.598 1.551-1.558.002-1.287 0-2.573 0-3.859z" fill="#000" fill-opacity=".5"/>
  <path d="M24 6.098c-.806 2.849-1.937 5.586-2.927 8.37-.599 1.683-2.347 2.447-4.038 1.863-.168-.058-.338-.114-.501-.185a.85.85 0 0 1-.47-1.066.846.846 0 0 1 1.056-.535c.154.045.302.106.454.16.86.3 1.621-.056 1.932-.914.68-1.877 1.353-3.757 2.03-5.636.208-.578.42-1.156.625-1.736.304-.859-.049-1.622-.909-1.934-2.462-.892-4.926-1.78-7.392-2.663-.841-.301-1.606.068-1.91.91-.562 1.551-1.116 3.105-1.676 4.655-.156.433-.513.675-.915.635a.84.84 0 0 1-.757-.719 1.017 1.017 0 0 1 .053-.469c.563-1.588 1.12-3.179 1.71-4.756C10.99.414 12.698-.397 14.37.19c2.514.88 5.02 1.786 7.52 2.704 1.178.433 1.865 1.3 2.065 2.546.01.06.03.117.045.175v.483z" fill="#fff"/>
  <path d="M24 6.098c-.806 2.849-1.937 5.586-2.927 8.37-.599 1.683-2.347 2.447-4.038 1.863-.168-.058-.338-.114-.501-.185a.85.85 0 0 1-.47-1.066.846.846 0 0 1 1.056-.535c.154.045.302.106.454.16.86.3 1.621-.056 1.932-.914.68-1.877 1.353-3.757 2.03-5.636.208-.578.42-1.156.625-1.736.304-.859-.049-1.622-.909-1.934-2.462-.892-4.926-1.78-7.392-2.663-.841-.301-1.606.068-1.91.91-.562 1.551-1.116 3.105-1.676 4.655-.156.433-.513.675-.915.635a.84.84 0 0 1-.757-.719 1.017 1.017 0 0 1 .053-.469c.563-1.588 1.12-3.179 1.71-4.756C10.99.414 12.698-.397 14.37.19c2.514.88 5.02 1.786 7.52 2.704 1.178.433 1.865 1.3 2.065 2.546.01.06.03.117.045.175v.483z" fill="#000" fill-opacity=".5"/>
  <path d="M15.716 7.12a1.153 1.153 0 0 1 1.155 1.127c.01.63-.516 1.164-1.147 1.163-.619 0-1.14-.522-1.143-1.143a1.157 1.157 0 0 1 1.135-1.147z" fill="#fff"/>
  <path d="M15.716 7.12a1.153 1.153 0 0 1 1.155 1.127c.01.63-.516 1.164-1.147 1.163-.619 0-1.14-.522-1.143-1.143a1.157 1.157 0 0 1 1.135-1.147z" fill="#000" fill-opacity=".5"/>
  <path d="M18.589 11.924c0 .63-.513 1.142-1.143 1.142a1.15 1.15 0 0 1-1.143-1.145 1.16 1.16 0 0 1 1.146-1.145 1.155 1.155 0 0 1 1.14 1.148z" fill="#fff"/>
  <path d="M18.589 11.924c0 .63-.513 1.142-1.143 1.142a1.15 1.15 0 0 1-1.143-1.145 1.16 1.16 0 0 1 1.146-1.145 1.155 1.155 0 0 1 1.14 1.148z" fill="#000" fill-opacity=".5"/>
  <path d="M14.01 3.467A1.143 1.143 0 0 1 15.15 4.61a1.146 1.146 0 0 1-2.29-.008 1.143 1.143 0 0 1 1.149-1.135z" fill="#fff"/>
  <path d="M14.01 3.467A1.143 1.143 0 0 1 15.15 4.61a1.146 1.146 0 0 1-2.29-.008 1.143 1.143 0 0 1 1.149-1.135z" fill="#000" fill-opacity=".5"/>
  <path d="M8.3 16.835a1.156 1.156 0 0 1-1.134 1.151 1.159 1.159 0 0 1-1.156-1.155 1.155 1.155 0 0 1 1.147-1.135c.624.001 1.14.516 1.142 1.139z" fill="#fff"/>
  <path d="M8.3 16.835a1.156 1.156 0 0 1-1.134 1.151 1.159 1.159 0 0 1-1.156-1.155 1.155 1.155 0 0 1 1.147-1.135c.624.001 1.14.516 1.142 1.139z" fill="#000" fill-opacity=".5"/>
  <path d="M4.31 20.84a1.135 1.135 0 0 1-1.151-1.128 1.138 1.138 0 0 1 1.126-1.154 1.142 1.142 0 1 1 .026 2.282z" fill="#fff"/>
  <path d="M4.31 20.84a1.135 1.135 0 0 1-1.151-1.128 1.138 1.138 0 0 1 1.126-1.154 1.142 1.142 0 1 1 .026 2.282z" fill="#000" fill-opacity=".5"/>
  <path d="M10.014 20.84a1.132 1.132 0 0 1-1.139-1.14c0-.635.503-1.141 1.136-1.142a1.133 1.133 0 0 1 1.138 1.14c0 .635-.502 1.14-1.135 1.141z" fill="#fff"/>
  <path d="M10.014 20.84a1.132 1.132 0 0 1-1.139-1.14c0-.635.503-1.141 1.136-1.142a1.133 1.133 0 0 1 1.138 1.14c0 .635-.502 1.14-1.135 1.141z" fill="#000" fill-opacity=".5"/>
  <path d="M4.293 12.845a1.132 1.132 0 0 1 1.147 1.13 1.135 1.135 0 0 1-1.136 1.144 1.131 1.131 0 0 1-1.144-1.132 1.13 1.13 0 0 1 1.133-1.143z" fill="#fff"/>
  <path d="M4.293 12.845a1.132 1.132 0 0 1 1.147 1.13 1.135 1.135 0 0 1-1.136 1.144 1.131 1.131 0 0 1-1.144-1.132 1.13 1.13 0 0 1 1.133-1.143z" fill="#000" fill-opacity=".5"/>
  <path d="M11.15 13.975a1.126 1.126 0 0 1-1.132 1.144 1.126 1.126 0 0 1-1.143-1.132 1.125 1.125 0 0 1 1.132-1.143c.639-.001 1.14.495 1.142 1.131z" fill="#fff"/>
  <path d="M11.15 13.975a1.126 1.126 0 0 1-1.132 1.144 1.126 1.126 0 0 1-1.143-1.132 1.125 1.125 0 0 1 1.132-1.143c.639-.001 1.14.495 1.142 1.131z" fill="#000" fill-opacity=".5"/>
</svg>
